<svg width="2124" height="323" viewBox="0 0 2124 323" fill="none" xmlns="http://www.w3.org/2000/svg">
<path d="M1757.98 0.386823C1793.5 0.386823 1816.51 -5.06799 1842.45 24.9903L1927.28 129.796H1864.32C1850.12 129.796 1833.87 125.734 1820.66 103.375L1757.98 0.386823Z" fill="url(#paint0_linear_222_50)"/>
<path d="M1950.72 160.252L2084.73 322.703H1990.81C1958.3 322.703 1939.67 303.413 1927.56 282.616L1887.25 214.062L1898.93 178.009L1950.72 160.252Z" fill="url(#paint1_linear_222_50)"/>
<path d="M1896.31 230.313L1865.35 178.009C1856.34 161.787 1864.46 142.496 1897.48 138.916C1930.49 135.336 1987.85 129.796 2004.07 163.406C1959.41 158.86 1892.9 172.441 1896.31 230.313Z" fill="url(#paint2_linear_222_50)"/>
<path d="M300.554 259.632V194.97C300.554 173.747 292.855 162.525 278.337 162.525C273.436 162.692 268.705 164.366 264.79 167.32C260.875 170.274 257.967 174.364 256.461 179.032C255.387 182.372 254.868 185.865 254.927 189.373V259.632H227.596V191.816C227.596 173.208 219.783 162.525 206.146 162.525C194.129 162.525 186.429 171.929 183.418 179.998C182.388 183.348 181.871 186.834 181.884 190.339V259.632H154.667V177.242C154.667 163.974 154.184 152.553 153.729 142.865H177.423L178.986 160.338H181.145L181.429 159.855C185.03 153.61 190.259 148.461 196.56 144.958C202.86 141.455 209.993 139.73 217.198 139.967C224.082 139.798 230.85 141.756 236.58 145.574C242.31 149.393 246.723 154.885 249.217 161.304L249.472 161.929H251.148L251.433 161.474C255.019 155.616 259.873 150.635 265.638 146.9C272.666 142.137 281.017 139.711 289.503 139.967C298.537 139.967 328.027 143.604 328.027 190.481V259.519L300.554 259.632ZM407.378 262.076C370.217 262.076 347.119 239.347 347.119 203.039C347.119 172.696 364.989 140.081 404.196 140.081C441.3 140.081 454.454 170.708 454.454 196.902C454.492 200.819 454.216 204.734 453.63 208.607H373.91V209.63C374.706 232.983 393.797 241.308 411.469 241.308C422.418 241.451 433.313 239.731 443.686 236.222L447.664 254.859C434.821 259.889 421.111 262.332 407.321 262.047L407.378 262.076ZM402.491 158.633C382.348 158.633 375.075 177.412 374.081 188.521V189.6H428.316V188.663C428.316 185.225 428.032 173.378 420.247 165.423C417.947 163.142 415.2 161.361 412.178 160.193C409.157 159.024 405.926 158.493 402.69 158.633H402.491ZM475.676 259.632V180.083C475.676 163.406 475.421 152.468 474.767 142.78H498.66L499.882 165.224H502.24L502.467 164.571C507.695 149.684 520.167 140.081 534.23 140.081C536.73 140.081 538.321 140.28 545.197 140.649V166.73C537.838 166.361 535.367 166.19 532.27 166.19C518.065 166.19 507.326 175.196 504.485 189.657C503.972 192.708 503.725 195.797 503.746 198.891V259.632H475.676ZM667.901 262.076C631.309 262.076 607.643 238.609 607.643 202.414C607.643 165.196 633.837 140.195 672.788 140.195C682.309 140.184 691.756 141.868 700.687 145.167L695.772 165.878C688.828 162.883 681.313 161.448 673.754 161.673C668.869 161.51 664 162.334 659.441 164.096C654.881 165.859 650.724 168.523 647.219 171.929C643.572 175.828 640.737 180.412 638.879 185.417C637.02 190.421 636.176 195.745 636.394 201.078C636.394 224.574 651.395 240.342 673.726 240.342C681.57 240.429 689.357 238.992 696.653 236.108L700.431 256.365C690.038 260.308 678.988 262.236 667.873 262.047L667.901 262.076ZM749.866 262.303C726.001 262.303 713.529 245.001 713.529 227.898C713.529 199.487 737.848 184.004 781.998 184.004H784.129V181.163C784.129 173.037 780.861 159.429 759.014 159.429C748.015 159.46 737.208 162.306 727.62 167.696L722.336 150.138C735.167 143.248 749.568 139.812 764.128 140.166C803.902 140.166 812.198 166.957 812.198 189.458V232.074C812.013 241.302 812.593 250.529 813.931 259.661H788.873L786.657 246.478H784.64L784.328 246.876C776.827 256.706 764.44 262.331 749.979 262.331L749.866 262.303ZM782.14 201.561C755.065 201.561 741.343 209.346 741.343 224.744C741.343 235.881 748.246 242.785 759.383 242.785C764.75 242.883 770.012 241.289 774.423 238.23C778.834 235.17 782.17 230.8 783.958 225.739C784.606 223.498 784.875 221.164 784.754 218.835V201.504L782.14 201.561ZM912.572 259.632V193.521C912.572 173.634 904.049 162.525 888.906 162.525C883.459 162.655 878.187 164.478 873.824 167.742C869.46 171.006 866.222 175.547 864.559 180.736C863.494 183.912 862.984 187.247 863.053 190.595V259.632H834.983V177.242C834.983 163.974 834.529 152.553 834.074 142.865H858.252L859.701 160.565H861.888L862.172 160.082C866.101 153.808 871.603 148.671 878.133 145.182C884.662 141.693 891.99 139.974 899.39 140.195C919.277 140.195 940.613 153.349 940.613 190.197V259.746L912.572 259.632ZM1197.47 259.632V180.083C1197.47 163.406 1197.22 152.468 1196.56 142.78H1220.46L1221.68 165.224H1224.04L1224.26 164.571C1229.52 149.684 1241.99 140.081 1256.03 140.081C1258.55 140.081 1260.12 140.28 1267.02 140.649V166.73C1259.63 166.361 1257.16 166.19 1254.09 166.19C1239.89 166.19 1229.12 175.196 1226.28 189.657C1225.77 192.708 1225.52 195.797 1225.54 198.891V259.632H1197.47ZM1279.44 88.374H1307.48V259.632H1279.44V88.374ZM1472.4 259.632V193.521C1472.4 173.634 1463.88 162.525 1448.73 162.525C1443.29 162.655 1438.02 164.478 1433.65 167.742C1429.29 171.006 1426.05 175.547 1424.39 180.736C1423.32 183.912 1422.81 187.247 1422.88 190.595V259.632H1394.95V177.242C1394.95 163.974 1394.5 152.553 1394.04 142.865H1418.22L1419.67 160.65H1421.86L1422.17 160.167C1426.09 153.893 1431.59 148.756 1438.11 145.267C1444.64 141.777 1451.96 140.058 1459.36 140.28C1479.25 140.28 1500.61 153.434 1500.61 190.282V259.831L1472.4 259.632ZM1582.18 262.076C1545.02 262.076 1521.92 239.347 1521.92 203.039C1521.92 172.696 1539.76 140.081 1579 140.081C1616.1 140.081 1629.25 170.708 1629.25 196.902C1629.28 200.819 1629 204.732 1628.43 208.607H1548.71V209.63C1549.53 232.983 1568.6 241.308 1586.3 241.308C1597.25 241.451 1608.14 239.731 1618.52 236.222L1622.49 254.859C1609.65 259.884 1595.94 262.326 1582.15 262.047L1582.18 262.076ZM1577.29 158.633C1557.12 158.633 1549.88 177.412 1548.88 188.521V189.6H1603.12V188.663C1603.12 185.225 1602.83 173.378 1595.05 165.423C1592.75 163.142 1590 161.361 1586.98 160.193C1583.96 159.024 1580.73 158.493 1577.49 158.633H1577.29ZM1678.26 262.076C1666.16 262.273 1654.18 259.596 1643.32 254.263L1649 234.375C1658.11 239.407 1668.26 242.238 1678.66 242.643C1691.39 242.643 1698.55 237.387 1698.55 228.239C1698.55 219.091 1692.04 214.999 1678.4 209.999C1657.41 202.925 1646.36 191.277 1646.36 176.276C1646.36 155.025 1664.4 140.166 1690.25 140.166C1700.81 139.987 1711.27 142.242 1720.82 146.758L1715.14 165.793C1707.58 161.743 1699.17 159.561 1690.59 159.429C1679.94 159.429 1673.04 164.798 1673.04 173.094C1673.04 181.39 1679.34 185.026 1694.4 190.595C1715.96 198.124 1725.25 208.635 1725.48 225.824C1725.48 248.211 1707.35 262.161 1678.15 262.161L1678.26 262.076ZM111.483 259.632H141.853L89.0668 97.1529H52.1332L0 259.632H29.0355L39.3769 223.807H100.8L111.483 259.632ZM45.2863 203.408L60.5427 150.565C62.2473 144.343 63.9519 137.41 65.5997 130.677C66.5373 126.899 67.4464 123.234 68.4408 119.768L68.6113 119.057H70.6284L72.2194 125.393C74.2365 133.376 76.5378 142.439 79.0947 150.451L94.8341 203.351L45.2863 203.408ZM1094.54 259.632H1125.05L1072.15 97.1529H1035.22L983.144 259.632H1012.07L1022.41 223.807H1083.83L1094.54 259.632ZM1028.46 203.408L1043.71 150.565C1045.45 144.343 1047.15 137.41 1048.8 130.677C1049.74 126.899 1050.65 123.234 1051.64 119.768L1051.84 119.057H1053.83L1055.45 125.393C1057.47 133.376 1059.74 142.439 1062.3 150.451L1078.03 203.351L1028.46 203.408ZM560.567 259.632V142.78H588.636V259.632H560.567ZM562.073 98.1472H587.244V122.126H562.073V98.1472ZM1138.72 259.632V142.78H1166.76V259.632H1138.72ZM1140.2 98.1472H1165.37V122.126H1140.2V98.1472ZM1339.35 259.632V142.78H1367.4V259.632H1339.35ZM1340.86 98.1472H1366.03V122.126H1340.86V98.1472ZM2097.63 308.072H2092.63V306.254H2104.82V308.072H2099.79V322.732H2097.63V308.072ZM2120.5 315.487C2120.5 313.186 2120.24 310.402 2120.24 308.385C2119.65 310.288 2118.99 312.362 2118.17 314.635L2115.33 322.618H2113.74L2110.9 314.777C2110.13 312.447 2109.48 310.345 2109.02 308.385C2109.02 310.43 2108.88 313.158 2108.71 315.658L2108.28 322.732H2106.24L2107.4 306.254H2110.24L2113.08 314.209C2113.77 316.254 2114.31 318.044 2114.76 319.891C2115.22 318.215 2115.78 316.396 2116.52 314.209L2119.36 306.254H2122.2L2123.23 322.732H2121.12L2120.5 315.487Z" fill="#394C75"/>
<defs>
<linearGradient id="paint0_linear_222_50" x1="1061.44" y1="5.83605" x2="1061.44" y2="318.917" gradientUnits="userSpaceOnUse">
<stop stop-color="#00D9FF"/>
<stop offset="1" stop-color="#0E518A"/>
</linearGradient>
<linearGradient id="paint1_linear_222_50" x1="0" y1="161.366" x2="2123.23" y2="161.366" gradientUnits="userSpaceOnUse">
<stop stop-color="#F12E1F"/>
<stop offset="1" stop-color="#9F1E1C"/>
</linearGradient>
<linearGradient id="paint2_linear_222_50" x1="493.705" y1="162.761" x2="2058.62" y2="32.3832" gradientUnits="userSpaceOnUse">
<stop stop-color="#E6EAEF"/>
<stop offset="1" stop-color="#95AAB1"/>
</linearGradient>
</defs>
</svg>
