<svg width="690" height="106" viewBox="0 0 690 106" fill="none" xmlns="http://www.w3.org/2000/svg">
<path d="M241.835 104.451C242.856 103.998 243.946 102.403 243.946 100.316V83.0307C241.431 82.7501 237.916 82.6291 233.974 82.6291C229.974 82.6291 226.43 82.7501 223.853 83.0307V100.316C223.853 102.403 224.914 103.927 225.95 104.451H212.025C213.057 103.998 214.159 102.403 214.159 100.316V62.1846C214.159 60.0671 213.057 58.5088 212.025 57.9958H225.95C224.914 58.5088 223.853 60.0671 223.853 62.1846V77.8043C226.43 78.0713 229.91 78.2039 233.974 78.2039C237.916 78.2039 241.431 78.0348 243.946 77.8043V62.1846C243.946 60.0671 242.856 58.5088 241.835 57.9958H255.739C254.699 58.5088 253.667 60.0671 253.667 62.1846V100.316C253.667 102.403 254.699 103.927 255.739 104.451H241.835ZM196.665 93.9427C196.665 85.0962 175.583 83.0979 175.583 68.9751C175.583 60.2285 183.997 57.3655 191.396 57.3655C194.696 57.3655 199.474 57.8171 202.493 59.189L203.016 67.876C201.161 64.0407 196.517 61.2604 192.202 61.2604C188.793 61.2604 185.218 62.9301 185.218 66.7846C185.218 75.9616 206.658 78.2039 206.658 91.5812C206.658 101.289 198.076 105.312 189.413 105.312C184.882 105.312 178.718 104.451 174.899 101.867C174.665 100.316 174.56 98.6887 174.56 97.1016C174.56 95.2032 174.728 93.3029 175.011 91.4333C177.398 96.8057 182.33 101.006 188.495 101.006C193.18 101.006 196.665 98.9847 196.665 93.9427M154.046 104.451C155.2 103.927 156.413 102.403 156.413 100.316V62.1846C156.413 60.0671 155.2 58.5703 154.046 57.9958H168.505C167.277 58.5703 166.101 60.0671 166.101 62.1846V100.316C166.101 102.403 167.277 103.927 168.505 104.451H154.046V104.451ZM121.685 104.451C123.233 103.752 123.989 101.942 123.989 100.316V63.3259H113.605C111.21 63.3259 108.353 63.6123 106.294 64.8247L109.523 57.9958H143.971C146.762 57.9958 149.616 57.9343 152.323 57.3655C151.011 60.8626 147.108 63.4528 144.855 63.4528C142.122 63.3913 137.595 63.2126 133.696 63.2126V100.316C133.696 101.942 134.51 103.752 136.032 104.451H121.685V104.451ZM90.3008 104.451C91.4671 103.927 92.6878 102.403 92.6878 100.316V62.1846C92.6878 60.0671 91.4671 58.5703 90.3008 57.9958H104.763C103.523 58.5703 102.391 60.0671 102.391 62.1846V100.316C102.391 102.403 103.523 103.927 104.763 104.451H90.3008V104.451ZM80.6577 104.726C78.8558 104.726 76.8692 104.791 75.149 104.288C71.9514 103.352 67.5332 96.2273 65.778 93.4335C63.0469 88.8854 60.6736 82.6291 54.5526 82.5618V100.316C54.5526 101.867 55.2679 103.752 56.7821 104.451H42.6682C44.1513 103.687 44.8589 101.942 44.8589 100.316V62.1846C44.8589 60.5706 44.1513 58.8047 42.6682 57.9958H59.6589C67.0531 57.9958 76.3055 60.8011 76.3055 69.5803C76.3055 76.9473 70.1379 80.723 63.2646 80.723C73.0477 80.7787 78.7916 103.464 89.5933 103.533C86.6971 104.378 83.6783 104.726 80.6577 104.726M56.9648 61.9963C56.1231 61.9963 55.3845 62.1327 54.5526 62.248V78.3134C55.3242 78.3653 56.0182 78.446 56.7821 78.446C62.0711 78.446 65.982 75.5581 65.982 69.8763C65.982 64.0676 62.1353 61.9963 56.9648 61.9963M16.0577 82.6291C14.7126 82.6291 13.5055 82.6291 11.8688 82.7501V99.9223C13.9098 100.316 16.1121 100.443 18.1453 100.443C22.8629 100.443 27.6563 98.3659 27.6563 91.2411C27.6563 84.2124 21.9882 82.6291 16.0577 82.6291ZM14.8836 61.9963C14.0303 61.9963 13.4394 61.9963 11.8688 62.1846V78.446H13.729C19.3641 78.446 24.8125 76.7225 24.8125 70.2721C24.8125 63.8659 20.4565 61.9963 14.8836 61.9963M0 104.451C1.51227 103.687 2.1926 101.867 2.1926 100.316V62.1846C2.1926 60.5706 1.51227 58.8047 0 57.9958H18.3844C26.5853 57.9958 34.5801 61.3142 34.5801 70.5161C34.5801 75.3928 30.2785 79.2434 25.6386 80.1081C32.3214 80.0466 38.7787 84.0817 38.7787 91.3737C38.7787 101.792 27.7263 104.451 19.9491 104.451H0V104.451Z" fill="#0054A6"/>
<path d="M541.012 93.943C541.012 85.0965 519.926 83.0982 519.926 68.9753C519.926 60.2288 528.315 57.3658 535.719 57.3658C539.033 57.3658 543.778 57.8173 546.816 59.1893L547.339 67.8762C545.465 64.0391 540.837 61.2606 536.52 61.2606C533.103 61.2606 529.557 62.9284 529.557 66.7848C529.557 75.9618 550.995 78.2042 550.995 91.5815C550.995 101.289 542.474 105.312 533.75 105.312C529.219 105.312 523.042 104.451 519.216 101.867C518.968 100.315 518.847 98.689 518.847 97.1019C518.847 95.2034 519.03 93.3031 519.317 91.4316C521.703 96.804 526.655 101.006 532.817 101.006C537.519 101.006 541.012 98.9849 541.012 93.943ZM514.952 62.8746L503.824 82.172V100.315C503.824 101.792 504.436 103.752 505.923 104.451H492.075C493.488 103.685 494.138 101.742 494.138 100.315V82.1105L484.465 66.7848C483.6 65.3514 479.561 58.6743 474.643 58.6743C475.981 58.1747 480.047 57.4042 482.778 57.4042C487.328 57.4042 489.587 57.8173 492.375 62.131L501.33 76.1597C502.078 74.782 509.169 62.598 509.169 62.598C510.024 61.1127 510.611 60.0674 510.611 59.5486C510.611 58.8799 510.322 58.4457 509.634 57.996H519.611C517.65 58.9203 516.023 61.0454 514.952 62.8746M472.49 104.451C472.976 103.996 473.343 103.658 473.343 102.836C473.343 102.557 473.203 102.096 472.917 101.227C472.917 101.227 469.084 90.8455 468.616 89.6389C465.694 89.2853 462.675 89.2853 459.715 89.2853C456.939 89.2853 454.084 89.3506 451.285 89.6389C450.882 90.6784 446.775 101.006 446.775 101.006C446.182 102.401 446.019 102.876 446.019 103.183C446.019 103.873 446.594 104.207 447.098 104.451H437.637C439.039 103.752 440.244 102.311 440.829 100.876L456.428 61.2107C456.471 61.0454 456.517 60.8629 456.517 60.6381C456.517 59.5486 455.781 58.5091 454.766 57.996H466.971L482.778 100.837C483.431 102.557 484.827 103.814 485.978 104.451H472.49V104.451ZM460.226 66.8367L453.1 84.9255C455.25 85.1561 457.45 85.2079 459.594 85.2079C462.032 85.2079 464.497 85.2079 466.878 84.9255L460.226 66.8367V66.8367ZM443.15 62.5307L428.871 104.451C427.693 104.451 426.534 104.052 425.879 103.596C424.472 102.251 422.25 96.6349 421.448 94.5636L414.996 78.4463L405.697 104.451H401.273L385.291 62.4289C384.603 60.6381 383.431 58.9203 381.689 57.996H395.578C394.994 58.4457 394.59 58.9548 394.59 59.9329C394.59 60.4017 394.827 61.0454 394.994 61.5488L405.403 89.3506L416.483 57.996L428.688 88.2246L437.937 60.8629C438.164 60.1193 438.302 59.8445 438.302 59.3776C438.302 58.805 438.051 58.4457 437.47 57.996H446.668C444.967 58.8799 443.739 60.8014 443.15 62.5307M384.521 104.724C382.719 104.724 380.776 104.792 379.015 104.288C375.809 103.352 371.403 96.2276 369.645 93.4318C366.924 88.8856 363.384 82.5621 357.3 82.5621V100.315C357.3 101.867 357.983 103.752 359.476 104.451H345.377C346.893 103.685 347.597 101.942 347.597 100.315V62.1848C347.597 60.5708 346.893 58.805 345.377 57.996H362.407C369.781 57.996 379.015 60.8014 379.015 69.5787C379.015 76.9475 372.273 80.7232 367.179 80.7232C377.32 81.3016 383.431 103.531 393.492 103.531C390.576 104.378 387.559 104.724 384.521 104.724M359.643 61.9965C358.861 61.9965 358.113 62.131 357.3 62.2482V78.3118C358.055 78.3656 358.743 78.4463 359.476 78.4463C364.78 78.4463 368.681 75.5583 368.681 69.8765C368.681 64.0679 364.821 61.9965 359.643 61.9965ZM323.216 104.451C324.382 103.925 325.589 102.401 325.589 100.315V62.1848C325.589 60.0674 324.382 58.5705 323.216 57.996H337.67C336.44 58.5705 335.297 60.0674 335.297 62.1848V100.315C335.297 102.401 336.44 103.925 337.67 104.451H323.216V104.451ZM295.078 66.8367L287.952 84.9255C290.074 85.1561 292.279 85.2079 294.428 85.2079C296.891 85.2079 299.327 85.2079 301.723 84.9255L295.078 66.8367V66.8367ZM307.355 104.451C307.806 103.996 308.212 103.658 308.212 102.836C308.212 102.557 308.107 102.096 307.761 101.227C307.761 101.227 303.902 90.8455 303.45 89.6389C300.549 89.2853 297.527 89.2853 294.57 89.2853C291.762 89.2853 288.914 89.3506 286.13 89.6389C285.736 90.6784 281.599 101.006 281.599 101.006C281.042 102.401 280.849 102.876 280.849 103.183C280.849 103.873 281.452 104.207 281.959 104.451H272.499C273.896 103.752 275.105 102.311 275.7 100.876L291.248 61.2107C291.318 61.0454 291.346 60.8629 291.346 60.6381C291.346 59.5486 290.611 58.5091 289.619 57.996H301.815L317.628 100.837C318.273 102.557 319.651 103.814 320.81 104.451H307.355V104.451Z" fill="#0054A6"/>
<path d="M670.735 25.4796C662.838 33.244 645.719 39.9043 637.295 43.0263C625.784 47.2988 620.68 48.8134 614.239 50.889C606.954 53.2247 592.373 57.5838 592.373 57.5838C622.576 66.493 643.851 69.1815 643.851 69.1815C643.851 69.1815 653.766 66.1579 669.475 57.8557C677.979 53.5832 682.165 50.704 685.16 47.952C686.258 46.9692 689.109 44.0322 689.82 40.2742C689.866 40.0372 689.976 39.4475 689.999 38.8289V38.2969C689.993 38.1177 689.982 37.8749 689.958 37.6552C689.947 37.1522 689.854 36.8228 689.854 36.8228C689.854 36.8228 689.687 35.9323 689.461 35.3079C689.236 34.6835 688.259 32.7526 686.686 31.5038C685.628 30.6539 683.813 28.5552 677.228 26.2658C674.984 25.4968 671.365 24.7858 671.365 24.7858L670.735 25.4796V25.4796Z" fill="url(#paint0_linear_196_37)"/>
<path d="M690 38.3782C690 38.3782 689.955 37.5482 689.749 36.843C689.59 36.2166 689.306 35.6151 688.882 34.9868C688.367 34.2394 687.675 33.3613 686.647 32.3871C685.868 31.6646 685.02 31.0247 684.002 30.3465C679.879 27.6795 674.564 26.175 669.855 25.5389C662.565 24.582 654.201 24.7492 653.408 24.7223C650.718 24.6858 633.339 24.8261 628.868 24.9049C609.026 25.3103 584.734 25.3641 578.368 25.3641C512.683 25.66 484.086 24.2612 452.264 17.9549C425.193 12.6382 410.172 7.59046 410.172 7.59046C434.049 6.77383 573.38 1.05745 598.797 0.388776C615.442 -0.0742988 627.254 -0.174215 636.709 0.367641C641.557 0.634726 646.068 1.04208 651.733 1.9932C656.812 2.85403 661.426 4.3105 664.115 5.29814C669.777 7.36949 674.547 10.367 676.903 13.4356C676.903 13.4356 677.601 14.1427 678.545 15.3974C679.609 16.8558 680.839 18.6505 681.257 19.3191C684.701 24.4783 686.338 27.7217 686.906 28.8496C687.522 30.0371 688.064 31.2707 688.591 32.4774C689.108 33.6745 689.32 34.4008 689.489 34.9061C689.848 36.1743 689.942 37.3329 689.955 37.5904L690 38.3782Z" fill="#ED1C28"/>
<defs>
<linearGradient id="paint0_linear_196_37" x1="660.669" y1="16.0517" x2="626.011" y2="76.7789" gradientUnits="userSpaceOnUse">
<stop stop-color="#E0E3F3"/>
<stop offset="0.399994" stop-color="#4F71B7"/>
<stop offset="0.899994" stop-color="#0054A6"/>
<stop offset="1" stop-color="#0054A6"/>
</linearGradient>
</defs>
</svg>
