<svg width="924" height="108" viewBox="0 0 924 108" fill="none" xmlns="http://www.w3.org/2000/svg">
<path d="M199.032 106.786L170.166 69.7496H159.307V106.786H126.204V9.30732H175.461C211.477 9.30732 234.52 19.4719 234.52 39.666C234.52 53.3136 221.276 61.7998 203.272 66.2545L235.048 106.781H199.032V106.786ZM173.874 26.2931H159.307V53.4521H175.725C192.677 53.4521 201.411 48.8506 201.411 39.9408C201.415 31.1716 193.739 26.2931 173.874 26.2931ZM317.444 70.0145V106.777H284.341V70.2945L236.667 9.29901H273.218L287.518 29.0731C293.612 37.5623 299.705 47.1789 301.293 51.7736C303.144 47.1786 309.238 37.1475 315.064 29.0731L329.364 9.29901H365.38L317.443 70.0136L317.444 70.0145ZM442.603 106.786L433.869 86.4578H392.297L383.56 106.786H349.662L397.065 9.30732H429.375L476.771 106.786H442.603ZM421.694 58.6078C418.514 51.0863 414.28 39.8008 412.957 34.9355C411.628 39.9441 407.926 50.3887 404.481 58.3241L399.45 70.1702H426.726L421.694 58.6078ZM566.833 106.786L532.674 63.3401C527.904 57.2133 522.076 49.2712 518.639 43.5684C518.902 49.5613 519.164 59.5825 519.164 65.7056V106.786H488.971V9.31563H522.341L554.917 52.0715C559.42 57.9112 566.042 66.9705 569.48 72.4028C569.217 66.4099 568.424 55.8287 568.424 49.6955V9.31594H598.614V106.786H566.833ZM705.486 106.786L696.74 86.4578H655.164L646.427 106.786H612.529L659.928 9.30732H692.243L739.645 106.786H705.486ZM684.562 58.6078C681.384 51.0863 677.151 39.8008 675.822 34.9355C674.496 39.9441 670.79 50.3887 667.346 58.3241L662.314 70.1702H689.597L684.562 58.6078ZM752.632 9.2904H785.728V106.769H752.632V9.2904ZM887.068 106.786L858.197 69.7496H847.342V106.786H814.233V9.30732H863.492C899.508 9.30732 922.546 19.4719 922.546 39.666C922.546 53.3136 909.311 61.7998 891.303 66.2545L923.077 106.781H887.067V106.784L887.068 106.786ZM861.906 26.2931H847.342V53.4521H863.757C880.706 53.4521 889.443 48.8506 889.443 39.9408C889.443 31.1716 881.768 26.2931 861.906 26.2931Z" fill="#2B4779"/>
<path d="M72.0182 5.83257C78.8779 8.12364 86.1357 9.87994 93.5363 10.7209L98.6981 10.7713L98.8575 10.6279C101.944 10.7122 104.225 9.35717 107.226 8.69564C107.549 8.61964 108.325 8.42487 108.654 8.86487C108.804 9.43871 108.569 10.0612 107.92 10.4879C104.244 13.3002 99.8609 15.3925 95.7289 16.8981V16.8138C94.3732 17.0744 92.9227 17.6581 91.515 18.1205C86.4249 19.6621 80.6305 20.6298 75.156 20.2353C64.6693 19.6974 55.7561 15.9501 46.4977 16.3932C37.406 15.8621 28.7593 19.3359 23.9202 26.1925C21.4371 29.7805 19.4621 33.5639 18.8464 37.7251C19.1202 41.4921 24.4088 42.9392 26.3903 46.0546C27.5276 47.9383 28.0916 50.014 28.9485 51.9693C31.1448 55.9093 33.3217 59.8459 36.0202 63.5539L35.9525 63.6299C37.5334 66.1099 40.0521 68.2576 43.0309 69.7142C46.8924 72.4742 50.3013 75.9354 52.3284 79.6536L52.2229 79.7126C54.5041 83.3496 55.7847 87.12 57.5512 90.9126C58.3429 93.2397 59.2161 95.2861 59.8939 97.551C60.1259 97.7627 60.1259 98.1043 60.2619 98.4018C60.8865 100.194 61.4188 102.104 62.1813 103.766C61.8521 104.016 62.4385 104.112 62.3668 104.355C62.409 105.362 63.3905 106.871 62.0801 107.546C60.1736 105.861 59.173 103.391 58.1432 101.595C55.8915 97.6683 53.3136 93.872 50.537 90.1369L50.6216 90.0609C48.917 87.92 47.0337 85.5083 45.0847 83.2923C36.8694 74.1973 24.7956 68.7354 15.9704 60.0764L15.8861 60.1524C15.1338 59.4776 14.6507 58.585 14.0415 57.8158L14.1005 57.7315C13.0252 56.2259 12.3864 54.5087 11.3467 52.9672L11.4058 52.8912C8.67501 48.8241 6.04825 44.5066 4.28211 40.2278C3.91442 38.3343 3.2658 36.7048 3.12211 34.5248L2.91596 33.8112C3.0298 31.8266 -1.89387 30.6765 0.814426 26.8697C2.51534 25.0353 9.09809 22.7737 11.3375 19.3291C11.3879 18.8147 11.5067 18.2015 11.063 17.7356C11.063 17.3679 10.6812 16.9799 10.4147 16.5984C9.16947 15.0504 5.79318 16.2728 5.84887 13.9879C6.19472 13.971 5.86579 13.6682 6.09348 13.5378C5.90456 12.4101 5.8261 11.6639 6.14425 10.7122C6.82548 8.83841 7.4901 6.68118 7.35656 4.79104C7.49379 4.08088 8.20394 3.65688 8.92055 3.37996C10.3221 3.02827 11.5473 2.83935 12.9224 2.65627L13.0953 2.79627C16.2728 2.53566 20.0888 2.76243 22.1971 5.25996C23.1091 7.15349 22.3962 9.39871 21.8845 11.3052C21.7248 12.4033 20.5221 13.2996 20.8024 14.4565C21.2199 14.8833 22.0962 14.8572 22.6534 14.6199C27.4503 11.7132 31.638 7.67872 35.1315 3.6055C38.3512 0.590741 43.0927 -0.451717 47.4534 0.174127C56.2878 0.855356 63.7542 3.81719 71.9893 5.82795L72.0182 5.83257Z" fill="#F4CA35"/>
<path d="M49.2466 21.7725C50.4915 23.4279 48.8257 24.8882 48.3306 26.3448C43.146 34.13 41.3371 42.9485 37.8962 51.2881C37.6389 51.5749 37.1279 51.6626 36.7586 51.5487C35.8426 50.8943 35.8426 49.8149 35.9476 48.8697C36.6383 39.8297 39.0269 31.3476 42.8755 23.2654C43.7749 21.9716 45.31 20.5055 47.2881 20.8116C48.0346 20.9676 48.7023 21.2285 49.2466 21.7725ZM62.9096 24.1341C63.5715 27.1064 61.4398 29.5439 60.4949 32.2029C55.4503 42.2731 49.3949 52.1272 46.4035 62.8915C46.2635 63.2336 46.0635 63.6967 45.6638 63.8465C45.2371 63.9635 44.8786 63.7512 44.7678 63.4493C43.7577 59.1706 44.9205 54.7186 46.0192 50.6518C48.8934 41.6149 52.3706 32.3697 57.2327 23.9651C57.797 23.535 57.8847 23.1707 58.5884 22.9713C60.2798 22.7947 61.9742 22.9202 62.9096 24.1341ZM77.5 24.6399C78.8591 25.6639 78.1579 27.5993 77.624 28.7987C71.7127 41.8897 62.1379 53.1773 58.1755 66.9068C57.0807 69.817 56.3703 72.825 55.461 75.7576C55.3007 76.2856 54.529 76.3016 53.978 76.1714C53.4527 74.9268 53.6072 73.3462 53.6072 72.0004C54.8552 60.9687 57.4918 50.2509 62.8819 40.6472C65.3324 35.8503 67.7016 31.5353 70.2727 26.8528C70.9988 25.5297 72.2151 24.3304 73.9813 23.8971C75.2816 23.8211 76.5323 24.1245 77.5 24.6399ZM93.6932 25.315C94.6409 26.902 93.7271 28.6488 93.296 30.1673C89.5354 40.6869 82.5031 49.394 76.8548 58.9782C72.0188 66.8518 68.8548 75.5948 65.6345 84.1434C64.5201 86.7111 64.1192 89.5628 62.7669 92.0034C62.6561 92.2664 62.3105 92.1089 62.0736 92.1763C61.2429 91.4754 61.3499 90.4754 61.1542 89.5886C61.7927 78.8871 65.9185 69.2176 69.793 59.5592C74.6422 48.7891 81.1434 38.5039 85.5628 27.3685C86.1782 25.9642 87.3942 24.2436 89.2711 23.7156C91.1514 23.4322 92.5757 24.1097 93.6932 25.315Z" fill="#F4CA35"/>
</svg>
